#N canvas 538 102 914 567 10;
#X obj 143 122 image vowels.gif;
#X obj 31 -61 bng 15 250 50 0 s240 empty empty 17 7 0 10 -262144 -1
-1;
#X obj 32 -34 bng 15 250 50 0 s235 empty empty 17 7 0 10 -262144 -1
-1;
#X obj 32 -7 bng 15 250 50 0 s390 empty empty 17 7 0 10 -262144 -1
-1;
#X obj 32 19 bng 15 250 50 0 s370 empty empty 17 7 0 10 -262144 -1
-1;
#X obj 32 43 bng 15 250 50 0 s610 empty empty 17 7 0 10 -262144 -1
-1;
#X obj 33 70 bng 15 250 50 0 s585 empty empty 17 7 0 10 -262144 -1
-1;
#X obj 33 96 bng 15 250 50 0 s850 empty empty 17 7 0 10 -262144 -1
-1;
#X obj 33 121 bng 15 250 50 0 s820 empty empty 17 7 0 10 -262144 -1
-1;
#X obj 33 148 bng 15 250 50 0 s750 empty empty 17 7 0 10 -262144 -1
-1;
#X obj 33 174 bng 15 250 50 0 s700 empty empty 17 7 0 10 -262144 -1
-1;
#X obj 34 200 bng 15 250 50 0 s600 empty empty 17 7 0 10 -262144 -1
-1;
#X obj 35 226 bng 15 250 50 0 s500 empty empty 17 7 0 10 -262144 -1
-1;
#X obj 35 253 bng 15 250 50 0 s460 empty empty 17 7 0 10 -262144 -1
-1;
#X obj 35 277 bng 15 250 50 0 s360 empty empty 17 7 0 10 -262144 -1
-1;
#X obj 35 304 bng 15 250 50 0 s300 empty empty 17 7 0 10 -262144 -1
-1;
#X obj 34 329 bng 15 250 50 0 s250 empty empty 17 7 0 10 -262144 -1
-1;
#N canvas 437 461 759 391 formantfreqs 0;
#X msg 15 35 240;
#X msg 47 35 2400;
#X obj 15 9 r s240;
#X obj 15 58 s f1;
#X obj 47 58 s f2;
#X obj 89 58 s f1;
#X obj 121 58 s f2;
#X obj 89 9 r s235;
#X msg 89 35 235;
#X msg 121 35 2100;
#X obj 160 59 s f1;
#X obj 192 59 s f2;
#X obj 234 59 s f1;
#X obj 266 59 s f2;
#X obj 160 10 r s390;
#X obj 234 10 r s370;
#X msg 160 36 390;
#X msg 192 36 2300;
#X msg 234 36 370;
#X msg 266 36 1900;
#X obj 308 58 s f1;
#X obj 340 58 s f2;
#X obj 382 58 s f1;
#X obj 414 58 s f2;
#X obj 453 59 s f1;
#X obj 485 59 s f2;
#X obj 527 59 s f1;
#X obj 559 59 s f2;
#X obj 308 9 r s610;
#X msg 308 35 610;
#X msg 340 35 1900;
#X obj 382 9 r s585;
#X msg 382 35 585;
#X msg 414 35 1710;
#X obj 453 10 r s850;
#X msg 453 36 850;
#X msg 485 36 1610;
#X obj 527 10 r s820;
#X msg 527 36 820;
#X msg 559 36 1530;
#X obj 16 138 s f1;
#X obj 48 138 s f2;
#X obj 90 138 s f1;
#X obj 122 138 s f2;
#X obj 161 139 s f1;
#X obj 193 139 s f2;
#X obj 235 139 s f1;
#X obj 267 139 s f2;
#X obj 309 138 s f1;
#X obj 341 138 s f2;
#X obj 383 138 s f1;
#X obj 415 138 s f2;
#X obj 454 139 s f1;
#X obj 486 139 s f2;
#X obj 528 139 s f1;
#X obj 560 139 s f2;
#X obj 16 89 r s750;
#X msg 16 115 750;
#X msg 48 115 940;
#X obj 90 89 r s700;
#X msg 90 115 700;
#X obj 161 90 r s600;
#X msg 161 116 600;
#X msg 193 116 1170;
#X obj 235 90 r s500;
#X msg 235 116 500;
#X msg 267 116 700;
#X obj 310 89 r s460;
#X msg 309 115 460;
#X msg 341 115 1310;
#X obj 383 89 r s360;
#X msg 383 115 360;
#X msg 415 115 640;
#X obj 454 90 r s300;
#X msg 454 116 300;
#X msg 486 116 1390;
#X obj 528 90 r s250;
#X msg 528 116 250;
#X msg 560 116 595;
#X msg 122 115 760;
#X obj 16 171 loadbang;
#X msg 16 194 40;
#X msg 67 195 90;
#X msg 142 196 60;
#X obj 143 217 s midinote;
#X msg 215 217 \; pd dsp 1;
#X obj 302 180 r f1;
#X obj 453 180 r f2;
#X obj 302 259 s f1del;
#X obj 453 262 s f2del;
#X obj 302 234 line;
#X obj 454 237 line;
#X obj 302 207 pack 1 1000;
#X obj 216 194 s deltime;
#X msg 215 169 1000;
#X obj 365 180 r deltimenum;
#X obj 454 210 pack 1 1000;
#X obj 517 183 r deltimenum;
#X obj 17 242 s filtQini;
#X obj 88 242 s 2formGainIni;
#X connect 0 0 3 0;
#X connect 1 0 4 0;
#X connect 2 0 0 0;
#X connect 2 0 1 0;
#X connect 7 0 8 0;
#X connect 7 0 9 0;
#X connect 8 0 5 0;
#X connect 9 0 6 0;
#X connect 14 0 16 0;
#X connect 14 0 17 0;
#X connect 15 0 18 0;
#X connect 15 0 19 0;
#X connect 16 0 10 0;
#X connect 17 0 11 0;
#X connect 18 0 12 0;
#X connect 19 0 13 0;
#X connect 28 0 29 0;
#X connect 28 0 30 0;
#X connect 29 0 20 0;
#X connect 30 0 21 0;
#X connect 31 0 32 0;
#X connect 31 0 33 0;
#X connect 32 0 22 0;
#X connect 33 0 23 0;
#X connect 34 0 35 0;
#X connect 34 0 36 0;
#X connect 35 0 24 0;
#X connect 36 0 25 0;
#X connect 37 0 38 0;
#X connect 37 0 39 0;
#X connect 38 0 26 0;
#X connect 39 0 27 0;
#X connect 56 0 57 0;
#X connect 56 0 58 0;
#X connect 57 0 40 0;
#X connect 58 0 41 0;
#X connect 59 0 60 0;
#X connect 59 0 79 0;
#X connect 60 0 42 0;
#X connect 61 0 62 0;
#X connect 61 0 63 0;
#X connect 62 0 44 0;
#X connect 63 0 45 0;
#X connect 64 0 65 0;
#X connect 64 0 66 0;
#X connect 65 0 46 0;
#X connect 66 0 47 0;
#X connect 67 0 68 0;
#X connect 67 0 69 0;
#X connect 68 0 48 0;
#X connect 69 0 49 0;
#X connect 70 0 71 0;
#X connect 70 0 72 0;
#X connect 71 0 50 0;
#X connect 72 0 51 0;
#X connect 73 0 74 0;
#X connect 73 0 75 0;
#X connect 74 0 52 0;
#X connect 75 0 53 0;
#X connect 76 0 77 0;
#X connect 76 0 78 0;
#X connect 77 0 54 0;
#X connect 78 0 55 0;
#X connect 79 0 43 0;
#X connect 80 0 81 0;
#X connect 80 0 82 0;
#X connect 80 0 83 0;
#X connect 80 0 85 0;
#X connect 80 0 94 0;
#X connect 81 0 98 0;
#X connect 82 0 99 0;
#X connect 83 0 84 0;
#X connect 86 0 92 0;
#X connect 87 0 96 0;
#X connect 90 0 88 0;
#X connect 91 0 89 0;
#X connect 92 0 90 0;
#X connect 94 0 93 0;
#X connect 95 0 92 1;
#X connect 96 0 91 0;
#X connect 97 0 96 1;
#X restore 272 -89 pd formantfreqs;
#X obj 277 -61 hsl 128 15 230 850 0 0 f1Hz f1del empty -2 -8 0 10 -262144
-1 -1 5799 1;
#X obj 276 -41 hsl 128 15 590 2400 0 0 f2Hz f2del empty -2 -8 0 10
-262144 -1 -1 5901 1;
#X text 448 -62 formant 1;
#X text 448 -41 formant 2;
#X floatatom 411 -62 5 0 0 0 - f1Hz -;
#X floatatom 412 -42 5 0 0 0 - f2Hz -;
#X obj 276 -20 hsl 128 15 0 50 0 0 filtQ filtQini empty -2 -8 0 10
-262144 -1 -1 10160 1;
#X floatatom 412 -21 5 0 0 0 - filtQ -;
#X text 449 -20 filter Q;
#X obj 276 1 hsl 128 15 0 100 0 0 2formGain 2formGainIni empty -2 -8
0 10 -262144 -1 -1 11430 1;
#X floatatom 412 0 5 0 0 0 - 2formGain -;
#X text 449 1 2nd form Gain;
#X obj 370 139 2formants;
#X obj 382 50 r f1Hz;
#X obj 395 72 r f2Hz;
#X obj 408 93 r filtQ;
#X obj 421 114 r 2formGain;
#X obj 274 75 phasor~;
#X obj 274 98 -~ 0.5;
#X obj 274 122 *~ 2;
#X obj 274 54 mtof;
#X obj 377 -88 hsl 128 15 0 1000 0 0 deltimenum deltime empty -2 -8
0 10 -262144 -1 -1 12700 1;
#X floatatom 514 -90 5 0 0 0 - deltimenum -;
#X text 448 -105 portamento time;
#X obj 575 -82 gcanvas 62 181;
#X floatatom 575 106 5 0 0 0 - - -;
#X floatatom 612 106 5 0 0 0 - - -;
#X obj 575 127 expr $f1*10+230;
#X obj 613 149 expr $f1*10+590;
#X floatatom 575 170 5 0 0 0 - - -;
#X floatatom 613 171 5 0 0 0 - - -;
#X obj 575 192 s f1del;
#X obj 626 192 s f2del;
#X text 572 -115 this is the [gcanvas] object it can be created with
2 arguments: size_x and size_y eg: [gcanvas 100 50];
#X obj 651 106 bng 15 250 50 0 empty empty empty 17 7 0 10 -262144
-1 -1;
#X text 267 216 This patch just shows how to control the first two
formants (2 bandpass filters) \, in order to give a cheap vowel quality
to any sound. You can try it (a) in discrete steps (ie banging on a
vowel from the table left \, will automatically configure the 2 frequencies)
\, and (b) continously \, just moving the 2 top horizontal sliders
(notice that the range of each slider \, has been set according to
the range of these formants). In this example \, a sawtooth wave is
filtered \, but obviously the audio input could be ANYTHING. You can
find more information on formants at the Wikipedia page from which
this table was captured: http://en.wikipedia.org/wiki/Formants sergi.jorda@upf.edu
2013;
#X obj 655 23 * 60;
#X obj 743 19 * 180;
#X msg 334 34 57;
#X obj 695 -60 r form1;
#X obj 803 -67 r form2;
#X obj 348 64 inlet~;
#X obj 370 194 outlet~;
#X obj 385 168 *~ 10;
#X connect 30 0 61 0;
#X connect 31 0 30 1;
#X connect 32 0 30 2;
#X connect 33 0 30 3;
#X connect 34 0 30 4;
#X connect 35 0 36 0;
#X connect 36 0 37 0;
#X connect 38 0 35 0;
#X connect 42 0 43 0;
#X connect 42 1 44 0;
#X connect 42 2 52 0;
#X connect 43 0 45 0;
#X connect 44 0 46 0;
#X connect 45 0 47 0;
#X connect 46 0 48 0;
#X connect 47 0 49 0;
#X connect 48 0 50 0;
#X connect 54 0 45 0;
#X connect 55 0 46 0;
#X connect 56 0 38 0;
#X connect 57 0 54 0;
#X connect 58 0 55 0;
#X connect 59 0 30 0;
#X connect 61 0 60 0;
