#N canvas 304 259 1234 509 10;
#X obj 916 222 hsl 128 15 0 127 0 0 empty empty empty -2 -8 0 10 -262144
-1 -1 0 1;
#X floatatom 911 262 5 0 0 0 - - -;
#X obj 909 302 ctlout 23;
#N canvas 53 320 733 489 intrument1control 0;
#X obj 241 76 unpack f f f;
#X obj 240 40 inlet;
#X obj 163 222 send form1;
#X obj 181 135 autoscale;
#X obj 281 137 autoscale;
#X obj 392 138 autoscale;
#X floatatom 172 174 5 0 0 0 - - -;
#X obj 278 258 outlet;
#X obj 282 186 average 10;
#X obj 382 252 send form2;
#X connect 0 0 3 0;
#X connect 0 1 5 0;
#X connect 0 2 4 0;
#X connect 1 0 0 0;
#X connect 3 0 6 0;
#X connect 4 0 8 0;
#X connect 5 0 9 0;
#X connect 6 0 2 0;
#X connect 8 0 7 0;
#X restore 815 132 pd intrument1control;
#X obj 711 98 OSCroute /3 /accxyz;
#X obj 665 140 OSCroute /xy;
#X obj 658 185 unpack 0 0;
#X obj 586 347 OSCroute /toggle1;
#X obj 523 193 ctlout 22;
#X obj 958 171 * 210;
#X obj 957 199 - 40;
#X obj 525 170 * 127;
#X text 967 274 Controls Wah amount with accel;
#X obj 335 143 OSCroute /toggle2;
#X obj 657 212 * 127;
#X obj 648 248 ctlout 20;
#X obj 730 213 * 127;
#X obj 737 246 ctlout 19;
#X obj 435 217 *~;
#X obj 224 300 *~;
#X obj 236 182 - 1;
#X obj 235 221 * -1;
#X text 128 58 Direct Input;
#N canvas 447 490 450 300 delay 0;
#X obj 104 81 delwrite~ delayname 500;
#X obj 105 167 delread~ delayname 150;
#X obj 103 34 inlet~;
#X obj 106 222 outlet~;
#X obj 203 127 *~ 0.3;
#X connect 1 0 3 0;
#X connect 1 0 4 0;
#X connect 2 0 0 0;
#X connect 4 0 0 0;
#X restore 575 444 pd delay;
#X obj 517 112 - 1;
#X obj 514 141 * -1;
#X obj 299 281 *~;
#X obj 520 83 OSCroute /toggle3;
#X obj 439 294 *~;
#X text 325 120 Toggles Direct Imput or Amp;
#N canvas 448 326 842 548 reverb 0;
#X obj 188 359 freeverb~;
#X msg 272 64 roomsize \$1;
#X msg 271 125 damping \$1;
#X msg 267 195 wet \$1;
#X msg 266 216 dry \$1;
#X msg 285 285 freeze \$1;
#X msg 285 325 bypass \$1;
#X obj 285 268 tgl 15 0 empty empty empty 17 7 0 10 -262144 -1 -1 0
1;
#X obj 285 308 tgl 15 0 empty empty empty 17 7 0 10 -262144 -1 -1 0
1;
#X obj 399 158 hsl 128 15 0 1 0 1 empty empty empty -2 -8 0 10 -4032
-1 -1 4700 1;
#X floatatom 396 177 5 0 0 0 - - -;
#X obj 327 199 expr 1-$f1;
#X obj 397 43 hsl 128 15 0.01 1 0 1 empty empty empty -2 -8 0 10 -4034
-1 -1 6600 1;
#X obj 399 100 hsl 128 15 0 1 0 1 empty empty empty -2 -8 0 10 -260097
-1 -1 5900 1;
#X floatatom 396 120 5 0 0 0 - - -;
#X floatatom 394 68 5 0 0 0 - - -;
#X text 376 274 Freeze the reverb;
#X text 376 334 the dry signal pass through.;
#X text 375 321 Trun the reverb off and let;
#X text 446 185 Wet signal to dry signal ratio;
#X text 446 201 (0 : all dry \, 1 : all wet);
#X text 447 120 Damping level;
#X text 446 66 Roomize;
#X text 281 470 Pierre Massat \, GuitarExtended \, 2012;
#X obj 187 30 inlet~;
#X obj 188 475 outlet~;
#X obj 340 239 inlet;
#X connect 0 0 25 0;
#X connect 1 0 0 0;
#X connect 2 0 0 0;
#X connect 3 0 0 0;
#X connect 4 0 0 0;
#X connect 5 0 0 0;
#X connect 6 0 0 0;
#X connect 7 0 5 0;
#X connect 8 0 6 0;
#X connect 9 0 10 0;
#X connect 9 0 3 0;
#X connect 9 0 11 0;
#X connect 11 0 4 0;
#X connect 12 0 1 0;
#X connect 12 0 15 0;
#X connect 13 0 2 0;
#X connect 13 0 14 0;
#X connect 24 0 0 0;
#X connect 26 0 8 0;
#X restore 456 360 pd reverb;
#X obj 505 262 OSCroute /toggle4;
#X text 516 60 Controls Wah On/off;
#X text 526 243 Controls Reverb;
#X obj 557 396 *~;
#X obj 506 297 - 1;
#X obj 503 326 * -1;
#N canvas 467 168 928 669 phasor 0;
#X obj 510 25 hsl 128 15 0 10 0 0 empty empty empty -2 -8 0 10 -262144
-1 -1 0 1;
#X obj 348 132 *~ 2;
#X obj 348 152 +~ 2;
#X obj 387 174 *~ 2;
#X obj 386 197 +~ 2;
#X obj 134 106 delwrite~ phase2 100;
#X obj 386 223 vd~ phase2;
#X obj 387 130 wrap~;
#X obj 357 75 phasor~;
#X obj 386 109 +~ 0.5;
#X obj 348 109 cos~;
#X obj 387 150 cos~;
#X obj 513 122 hsl 128 15 0 3 0 0 empty empty empty -2 -8 0 10 -262144
-1 -1 0 1;
#X obj 386 246 *~ 0.8;
#X obj 348 307 *~ 0.8;
#X obj 457 334 s~ output;
#X obj 121 292 r~ output;
#X obj 542 241 hsl 128 15 -0.9 0.9 0 0 empty empty empty -2 -8 0 10
-262144 -1 -1 0 1;
#X text 262 40 <-- Write to delay lines;
#X text 458 220 <-- Read from delay line 2;
#X text 452 284 <-- Read from delay line 1;
#X obj 349 284 vd~ phase1;
#X obj 135 46 delwrite~ phase1 100;
#X text 420 75 <-- Low Frequency Oscillator (LFO);
#X floatatom 507 49 5 0 0 0 - - -;
#X floatatom 511 148 5 0 0 0 - - -;
#X floatatom 539 262 5 0 0 0 - - -;
#X text 650 21 <-- Speed (try 0.7);
#X text 655 120 <-- Depth (try 2.4);
#X text 682 241 <-- Feedback (try -0.3);
#X text 453 415 comment;
#X obj 752 -4 unpack f f f;
#X obj 720 50 autoscale 5;
#X obj 713 167 autoscale 3;
#X obj 736 272 autoscale 0.5;
#X obj 90 -61 inlet~;
#X obj 89 332 outlet~;
#X obj 714 -31 inlet;
#X connect 0 0 8 0;
#X connect 0 0 24 0;
#X connect 1 0 2 0;
#X connect 2 0 21 0;
#X connect 3 0 4 0;
#X connect 4 0 6 0;
#X connect 6 0 13 0;
#X connect 6 0 15 0;
#X connect 7 0 11 0;
#X connect 8 0 9 0;
#X connect 8 0 10 0;
#X connect 9 0 7 0;
#X connect 10 0 1 0;
#X connect 11 0 3 0;
#X connect 12 0 1 1;
#X connect 12 0 3 1;
#X connect 12 0 2 1;
#X connect 12 0 4 1;
#X connect 12 0 25 0;
#X connect 13 0 5 0;
#X connect 14 0 22 0;
#X connect 16 0 36 0;
#X connect 17 0 14 1;
#X connect 17 0 13 1;
#X connect 17 0 26 0;
#X connect 21 0 14 0;
#X connect 21 0 15 0;
#X connect 31 0 32 0;
#X connect 31 1 33 0;
#X connect 31 2 34 0;
#X connect 32 0 0 0;
#X connect 33 0 12 0;
#X connect 34 0 17 0;
#X connect 35 0 5 0;
#X connect 35 0 22 0;
#X connect 35 0 36 0;
#X connect 37 0 31 0;
#X restore 626 414 pd phasor;
#X obj 147 84 adc~;
#X obj 99 577 dac~;
#X obj 713 70 dumpOSC 8000;
#X obj 33 207 Formants;
#X obj 136 203 Formants;
#N canvas 448 326 842 548 reverb 0;
#X obj 188 359 freeverb~;
#X msg 272 64 roomsize \$1;
#X msg 271 125 damping \$1;
#X msg 267 195 wet \$1;
#X msg 266 216 dry \$1;
#X msg 285 285 freeze \$1;
#X msg 285 325 bypass \$1;
#X obj 285 268 tgl 15 0 empty empty empty 17 7 0 10 -262144 -1 -1 0
1;
#X obj 285 308 tgl 15 0 empty empty empty 17 7 0 10 -262144 -1 -1 0
1;
#X obj 399 158 hsl 128 15 0 1 0 1 empty empty empty -2 -8 0 10 -4032
-1 -1 4700 1;
#X floatatom 396 177 5 0 0 0 - - -;
#X obj 327 199 expr 1-$f1;
#X obj 397 43 hsl 128 15 0.01 1 0 1 empty empty empty -2 -8 0 10 -4034
-1 -1 6600 1;
#X obj 399 100 hsl 128 15 0 1 0 1 empty empty empty -2 -8 0 10 -260097
-1 -1 5900 1;
#X floatatom 396 120 5 0 0 0 - - -;
#X floatatom 394 68 5 0 0 0 - - -;
#X text 376 274 Freeze the reverb;
#X text 376 334 the dry signal pass through.;
#X text 375 321 Trun the reverb off and let;
#X text 446 185 Wet signal to dry signal ratio;
#X text 446 201 (0 : all dry \, 1 : all wet);
#X text 447 120 Damping level;
#X text 446 66 Roomize;
#X text 281 470 Pierre Massat \, GuitarExtended \, 2012;
#X obj 187 30 inlet~;
#X obj 188 475 outlet~;
#X obj 340 239 inlet;
#X connect 0 0 25 0;
#X connect 1 0 0 0;
#X connect 2 0 0 0;
#X connect 3 0 0 0;
#X connect 4 0 0 0;
#X connect 5 0 0 0;
#X connect 6 0 0 0;
#X connect 7 0 5 0;
#X connect 8 0 6 0;
#X connect 9 0 10 0;
#X connect 9 0 3 0;
#X connect 9 0 11 0;
#X connect 11 0 4 0;
#X connect 12 0 1 0;
#X connect 12 0 15 0;
#X connect 13 0 2 0;
#X connect 13 0 14 0;
#X connect 24 0 0 0;
#X connect 26 0 8 0;
#X restore 41 245 pd reverb;
#N canvas 448 326 842 548 reverb 0;
#X obj 188 359 freeverb~;
#X msg 272 64 roomsize \$1;
#X msg 271 125 damping \$1;
#X msg 267 195 wet \$1;
#X msg 266 216 dry \$1;
#X msg 285 285 freeze \$1;
#X msg 285 325 bypass \$1;
#X obj 285 268 tgl 15 0 empty empty empty 17 7 0 10 -262144 -1 -1 0
1;
#X obj 285 308 tgl 15 0 empty empty empty 17 7 0 10 -262144 -1 -1 0
1;
#X obj 399 158 hsl 128 15 0 1 0 1 empty empty empty -2 -8 0 10 -4032
-1 -1 4700 1;
#X floatatom 396 177 5 0 0 0 - - -;
#X obj 327 199 expr 1-$f1;
#X obj 397 43 hsl 128 15 0.01 1 0 1 empty empty empty -2 -8 0 10 -4034
-1 -1 6600 1;
#X obj 399 100 hsl 128 15 0 1 0 1 empty empty empty -2 -8 0 10 -260097
-1 -1 5900 1;
#X floatatom 396 120 5 0 0 0 - - -;
#X floatatom 394 68 5 0 0 0 - - -;
#X text 376 274 Freeze the reverb;
#X text 376 334 the dry signal pass through.;
#X text 375 321 Trun the reverb off and let;
#X text 446 185 Wet signal to dry signal ratio;
#X text 446 201 (0 : all dry \, 1 : all wet);
#X text 447 120 Damping level;
#X text 446 66 Roomize;
#X text 281 470 Pierre Massat \, GuitarExtended \, 2012;
#X obj 187 30 inlet~;
#X obj 188 475 outlet~;
#X obj 340 239 inlet;
#X connect 0 0 25 0;
#X connect 1 0 0 0;
#X connect 2 0 0 0;
#X connect 3 0 0 0;
#X connect 4 0 0 0;
#X connect 5 0 0 0;
#X connect 6 0 0 0;
#X connect 7 0 5 0;
#X connect 8 0 6 0;
#X connect 9 0 10 0;
#X connect 9 0 3 0;
#X connect 9 0 11 0;
#X connect 11 0 4 0;
#X connect 12 0 1 0;
#X connect 12 0 15 0;
#X connect 13 0 2 0;
#X connect 13 0 14 0;
#X connect 24 0 0 0;
#X connect 26 0 8 0;
#X restore 143 240 pd reverb;
#X obj 195 132 Pitchd;
#X text 155 46 lo pass filter freq;
#X text 165 56 lo pass filter freq;
#X text 155 46 lo pass filter freq;
#X obj 127 507 filter;
#X obj 48 503 filter;
#X connect 0 0 1 0;
#X connect 1 0 2 0;
#X connect 3 0 9 0;
#X connect 4 0 5 0;
#X connect 4 0 7 0;
#X connect 4 0 13 0;
#X connect 4 0 27 0;
#X connect 4 0 31 0;
#X connect 4 1 3 0;
#X connect 4 1 37 1;
#X connect 5 0 6 0;
#X connect 6 0 14 0;
#X connect 6 1 16 0;
#X connect 7 0 34 1;
#X connect 9 0 10 0;
#X connect 10 0 0 0;
#X connect 11 0 8 0;
#X connect 13 0 18 1;
#X connect 13 0 20 0;
#X connect 14 0 15 0;
#X connect 16 0 17 0;
#X connect 18 0 28 0;
#X connect 19 0 30 0;
#X connect 20 0 21 0;
#X connect 21 0 19 1;
#X connect 24 0 25 0;
#X connect 25 0 11 0;
#X connect 25 0 28 1;
#X connect 26 0 30 0;
#X connect 27 0 24 0;
#X connect 27 0 26 1;
#X connect 28 0 30 0;
#X connect 30 0 34 0;
#X connect 31 0 35 0;
#X connect 34 0 23 0;
#X connect 34 0 37 0;
#X connect 35 0 36 0;
#X connect 36 0 30 1;
#X connect 38 0 41 0;
#X connect 38 0 42 0;
#X connect 38 0 45 0;
#X connect 40 0 4 0;
#X connect 43 0 50 0;
#X connect 44 0 49 0;
#X connect 45 0 43 0;
#X connect 45 0 44 0;
#X connect 49 0 39 1;
#X connect 49 0 39 0;
