#N canvas 261 317 1106 559 10;
#X declare -lib mrpeach;
#X declare -lib cyclone;
#X declare -lib cyclone;
#X declare -lib cyclone;
#X declare -lib cyclone;
#X declare -lib cyclone;
#X declare -lib cyclone;
#X declare -lib cyclone;
#X declare -lib cyclone;
#X declare -lib cyclone;
#X declare -lib cyclone;
#X declare -lib cyclone;
#X declare -lib cyclone;
#X declare -lib cyclone;
#X declare -lib cyclone;
#X declare -lib cyclone;
#X declare -lib cyclone;
#X declare -lib cyclone;
#X declare -lib cyclone;
#X declare -lib cyclone;
#X declare -lib cyclone;
#X declare -lib cyclone;
#X declare -lib cyclone;
#X declare -lib cyclone;
#X declare -lib cyclone;
#X declare -lib cyclone;
#X declare -lib cyclone;
#X declare -lib cyclone;
#X declare -lib cyclone;
#X declare -lib cyclone;
#X declare -lib cyclone;
#X declare -lib cyclone;
#X declare -lib cyclone;
#X obj 155 23 loadometer;
#X text 14 -1 Uses MIDI for demonstration purposes \, but that can
easily be changed!;
#X text 18 469 Phil Stone - http://pkstonemusic.com;
#X obj 261 511 s \$0-OSC;
#X obj 220 77 r \$0-OSC;
#X obj 27 110 polywavesynth example 32 1;
#X text 305 402 Play a note via OSC;
#X text 261 358 Change oscillator carrier wave to pulse via OSC;
#X text 328 341 OSC ADDRESSING EXAMPLES;
#X obj 289 464 pipe 200;
#X obj 281 443 t a b;
#X text 98 92 amp.;
#X text 31 93 freq.;
#X obj 280 400 bng 15 250 50 0 empty empty empty 17 7 0 10 -262144
-1 -1;
#X msg 280 420 /example/note/amp 1 \, /example/note/freq 440;
#X msg 289 487 /example/note/amp 0 \, /example/note/freq 440;
#X msg 262 378 /example/osc/carrier/wave 3;
#X floatatom 276 245 5 -100 100 0 - - -;
#X obj 276 266 / 100;
#N canvas 454 179 217 230 pitchbend 0;
#X obj 24 22 nbx 2 14 0 99 0 1 empty empty semitones 32 8 0 10 -232576
-1 -1 4 256;
#X text 2 21 +/-;
#X obj 4 47 bendin;
#X obj 5 89 / 8192;
#X obj 5 125 * 1200;
#X obj 56 48 * 100;
#X text 47 123 convert to cents;
#X obj 4 68 - 8192;
#X obj 5 182 s \$0-OSC;
#X msg 5 153 /*/global/pitchbend \$1;
#X obj 125 15 inlet;
#X text 54 10 Range \, in;
#X connect 0 0 5 0;
#X connect 2 0 7 0;
#X connect 3 0 4 0;
#X connect 4 0 9 0;
#X connect 5 0 4 1;
#X connect 7 0 3 0;
#X connect 9 0 8 0;
#X connect 10 0 4 0;
#X coords 0 -1 1 1 110 40 1 0 0;
#X restore 276 287 pd pitchbend;
#X obj 442 30 loadbang;
#X msg 507 78 \; pd dsp 1;
#X obj 321 154 sssadpanel;
#X text 326 129 Save and load presets:;
#X msg 507 114 \; pd dsp 0;
#X msg 321 108 example_presets/example1;
#X obj 442 53 t b b;
#X obj 321 85 delay 1000;
#X text 296 23 This auto-loads an;
#X text 297 38 example preset \, with;
#X text 297 53 an example sound file.;
#X obj 411 256 bng 20 250 50 0 empty empty AllNotesOff 0 -6 0 10 -262144
-1 -1;
#X obj 411 310 s \$0-OSC;
#X msg 411 284 /*/global/allnotesoff 1;
#X obj 601 214 cnv 15 350 300 empty empty empty 20 12 0 14 -261682
-66577 0;
#X msg 604 260 /example/osc/carrier/wave \$1;
#X obj 604 218 hradio 15 1 0 6 empty empty empty 0 -8 0 10 -262144
-1 -1 0;
#X floatatom 604 238 5 0 0 0 - - -;
#X obj 604 491 s \$0-OSC;
#X obj 613 281 hradio 15 1 0 6 empty empty empty 0 -8 0 10 -262144
-1 -1 0;
#X msg 613 322 /example/osc/mod/wave \$1;
#X floatatom 613 300 5 0 0 0 - - -;
#X obj 718 218 hsl 128 15 0 1.1 0 0 empty empty empty -2 -8 0 10 -262144
-1 -1 0 1;
#X floatatom 715 238 5 0 0 0 - - -;
#X msg 715 279 /example/gain \$1;
#X obj 860 219 vsl 15 128 0 127 0 0 empty empty empty 0 -9 0 10 -262144
-1 -1 0 1;
#X floatatom 817 356 5 0 0 0 - - -;
#X obj 817 376 mtof;
#X floatatom 818 398 8 0 0 0 - - -;
#X msg 629 353 /example/filt/freq \$1;
#X text 631 432 aquí algunos ejemplos más de control por OSC a partir
de la documentación de la página web del sinte: http://www.pkstonemusic.com/polyWaveSynth.html#osc
SERGI;
#X obj 27 77 inlet;
#X floatatom 36 43 5 0 0 0 - - -;
#X msg 90 48 440;
#X msg 96 78 1;
#X obj 73 434 outlet~;
#X obj 42 405 *~ 2;
#X obj 195 407 *~ 2;
#X obj 186 433 outlet~;
#X connect 4 0 5 3;
#X connect 5 0 56 0;
#X connect 5 1 57 0;
#X connect 9 0 15 0;
#X connect 10 0 3 0;
#X connect 10 1 9 0;
#X connect 13 0 14 0;
#X connect 14 0 10 0;
#X connect 15 0 3 0;
#X connect 16 0 3 0;
#X connect 17 0 18 0;
#X connect 18 0 19 0;
#X connect 20 0 26 0;
#X connect 25 0 22 0;
#X connect 26 0 27 0;
#X connect 26 1 21 0;
#X connect 27 0 25 0;
#X connect 31 0 33 0;
#X connect 33 0 32 0;
#X connect 35 0 38 0;
#X connect 36 0 37 0;
#X connect 37 0 35 0;
#X connect 39 0 41 0;
#X connect 40 0 38 0;
#X connect 41 0 40 0;
#X connect 42 0 43 0;
#X connect 43 0 44 0;
#X connect 44 0 38 0;
#X connect 45 0 46 0;
#X connect 46 0 47 0;
#X connect 47 0 48 0;
#X connect 48 0 49 0;
#X connect 49 0 38 0;
#X connect 51 0 5 0;
#X connect 51 0 52 0;
#X connect 53 0 5 0;
#X connect 54 0 5 1;
#X connect 56 0 55 0;
#X connect 57 0 58 0;
