#N canvas 398 342 632 247 12;
#X obj 26 12 inlet~;
#X obj 39 60 inlet;
#X obj 88 60 inlet;
#X obj 137 61 inlet;
#X obj 26 171 vcf~;
#X obj 74 172 vcf~;
#X obj 183 88 inlet;
#X obj 74 136 *~;
#X obj 26 206 outlet~;
#X text 23 -6 audioIN;
#X obj 183 118 dbtorms;
#X text 178 59 filterQ (~0-50);
#X text 230 83 relative amplitude of the 2nd with respect to the 1st
(0-100);
#X text 18 37 freq 1st \, 2nd formants (1st: ~230-850Hz / 2nd: ~590-2400Hz)
;
#X connect 0 0 4 0;
#X connect 0 0 7 0;
#X connect 1 0 4 1;
#X connect 2 0 5 1;
#X connect 3 0 4 2;
#X connect 3 0 5 2;
#X connect 4 0 8 0;
#X connect 5 0 8 0;
#X connect 6 0 10 0;
#X connect 7 0 5 0;
#X connect 10 0 7 1;
