#N canvas 693 257 997 710 10;
#X obj 348 332 +~;
#X obj 396 209 nbx 5 14 -1e+37 1e+37 0 0 empty empty empty 0 -8 0 10
-262144 -1 -1 0 256;
#X obj 394 241 osc~;
#X obj 390 288 *~;
#X obj 453 263 nbx 5 14 -1e+37 1e+37 0 0 empty empty empty 0 -8 0 10
-262144 -1 -1 108 256;
#X obj 288 409 vcf~ 220 1;
#X obj 396 351 nbx 5 14 0 1 0 0 empty empty empty 0 -8 0 10 -262144
-1 -1 1 256;
#X obj 341 112 hsl 128 15 100 800 0 0 empty empty empty -2 -8 0 10
-262144 -1 -1 2105 1;
#X obj 276 45 inlet~;
#X obj 323 646 outlet~;
#X floatatom 366 148 5 0 0 0 - - -;
#X obj 389 183 hsl 128 15 0 20 0 0 empty empty empty -2 -8 0 10 -262144
-1 -1 0 1;
#N canvas 675 22 263 214 filters 0;
#X obj 47 41 inlet~;
#X obj 47 176 outlet~;
#X text 103 79 DC filter;
#X text 140 140 sibilant filter;
#X obj 125 41 inlet;
#X text 165 40 freq;
#X obj 47 80 hip~ 160;
#X obj 47 140 lp6_cheb~ 3000;
#X connect 0 0 6 0;
#X connect 4 0 7 1;
#X connect 6 0 7 0;
#X connect 7 0 1 0;
#X restore 311 548 pd filters;
#X obj 368 505 nbx 4 14 1000 3000 1 1 empty empty empty 0 -8 0 10 -262144
-1 -1 1000 256;
#X text 379 523 lo pass filter freq;
#X obj 565 67 r x1;
#X obj 511 152 r LFOfilter;
#X obj 284 448 *~ 3;
#X obj 431 297 loadbang;
#X obj 196 148 r pit;
#X floatatom 199 192 5 0 0 0 - - -;
#X obj 491 64 r rhy;
#X obj 505 87 / 2;
#X msg 409 321 1;
#X obj 544 130 int;
#X obj 494 124 *;
#X obj 550 98 * 12;
#X obj 336 45 loadbang;
#X msg 453 232 500;
#X obj 465 155 *;
#X msg 338 74 300;
#X obj 196 236 int;
#X obj 199 267 * 2;
#X connect 0 0 5 1;
#X connect 1 0 2 0;
#X connect 2 0 3 0;
#X connect 3 0 0 1;
#X connect 4 0 3 1;
#X connect 5 0 17 0;
#X connect 6 0 5 2;
#X connect 7 0 0 0;
#X connect 7 0 10 0;
#X connect 8 0 5 0;
#X connect 11 0 1 0;
#X connect 12 0 9 0;
#X connect 13 0 12 1;
#X connect 15 0 26 0;
#X connect 16 0 29 1;
#X connect 17 0 12 0;
#X connect 18 0 23 0;
#X connect 18 0 28 0;
#X connect 19 0 20 0;
#X connect 20 0 31 0;
#X connect 21 0 22 0;
#X connect 22 0 25 1;
#X connect 23 0 6 0;
#X connect 24 0 25 0;
#X connect 25 0 29 0;
#X connect 26 0 24 0;
#X connect 27 0 30 0;
#X connect 28 0 4 0;
#X connect 29 0 11 0;
#X connect 30 0 7 0;
#X connect 31 0 32 0;
#X connect 31 0 4 0;
#X connect 32 0 7 0;
