#N canvas 0 23 1017 679 10;
#X obj 110 73 tgl 25 0 empty empty empty 17 7 0 25 -262144 -1 -1 0
1;
#X obj 458 283 *;
#X obj 506 279 samplerate~;
#X obj 458 259 t f b;
#X obj 58 296 r~ main_out;
#X obj 58 327 +~;
#X obj 74 196 *~;
#X obj 110 178 line~;
#X obj 110 159 pack 0 5;
#X obj 480 393 r loop_on_off;
#X text 103 45 Record;
#N canvas 330 257 450 300 into_blocks 0;
#X obj 173 101 % 64;
#X obj 146 81 t f f;
#X obj 146 121 -;
#X obj 146 59 int;
#X obj 146 17 inlet;
#X obj 146 167 outlet;
#X text 238 67 to be a multiple of the block size.;
#X text 238 49 Force the length of the tables;
#X connect 0 0 2 1;
#X connect 1 0 2 0;
#X connect 1 1 0 0;
#X connect 2 0 5 0;
#X connect 3 0 1 0;
#X connect 4 0 3 0;
#X restore 458 305 pd into_blocks;
#X obj 458 330 s new_length;
#X obj 847 262 r new_length;
#X obj 559 549 spigot;
#X obj 480 453 sel 1 0;
#X msg 480 486 bang;
#X msg 514 485 stop;
#X obj 478 565 s~ main_out;
#X obj 847 332 r empty_table;
#X obj 775 122 t f f;
#X obj 775 166 s loop_on_off;
#X obj 480 433 t f f;
#X obj 579 528 s stop_looping;
#X obj 126 346 r stop_looping;
#X obj 559 578 s new_cycle;
#X obj 145 367 r new_cycle;
#X obj 58 388 tabwrite~ bande;
#X obj 478 527 tabplay~ bande;
#X obj 847 404 table bande;
#N canvas 185 178 252 185 limiter 0;
#X obj 24 22 inlet~;
#X msg 121 85 limit 100;
#X obj 121 21 loadbang;
#X obj 24 60 z~ 64;
#X obj 24 169 *~;
#X obj 24 200 outlet~;
#X obj 121 113 limiter~ 10;
#X connect 0 0 3 0;
#X connect 0 0 6 0;
#X connect 1 0 6 0;
#X connect 2 0 1 0;
#X connect 3 0 4 0;
#X connect 4 0 5 0;
#X connect 6 0 4 1;
#X restore 74 246 pd limiter;
#X obj 605 100 bng 15 250 50 0 empty empty empty 17 7 0 10 -262144
-1 -1;
#X obj 605 176 s empty_table;
#X obj 480 413 tgl 15 0 empty empty empty 17 7 0 10 -262144 -1 -1 1
1;
#X text 562 473 Here we play the table (loop) continuously.;
#X text 42 422 This is where the recording happens.;
#X text 288 250 ...and compute the length;
#X text 288 264 of the table in samples \, as;
#X text 289 291 block size.;
#X text 289 279 a multiple of the;
#X obj 775 102 tgl 15 0 empty empty empty 17 7 0 10 -262144 -1 -1 1
1;
#X msg 449 393 1;
#X obj 605 120 t b b;
#X obj 605 143 del 2;
#X text 746 53 Audio On/Off;
#X text 595 56 Clear;
#X obj 449 369 r new_length;
#X obj 61 598 soundfiler;
#X obj 61 558 savepanel;
#X obj 61 540 bng 15 250 50 0 empty empty empty 17 7 0 10 -262144 -1
-1;
#X msg 61 578 write -wave \$1.wav bande;
#X text 27 502 And if you really happy with your loop \,;
#X text 27 516 save it as a .wav file !;
#N canvas 185 178 252 185 limiter 0;
#X obj 24 22 inlet~;
#X msg 121 85 limit 100;
#X obj 121 21 loadbang;
#X obj 24 60 z~ 64;
#X obj 24 169 *~;
#X obj 24 200 outlet~;
#X obj 121 113 limiter~ 10;
#X connect 0 0 3 0;
#X connect 0 0 6 0;
#X connect 1 0 6 0;
#X connect 2 0 1 0;
#X connect 3 0 4 0;
#X connect 4 0 5 0;
#X connect 6 0 4 1;
#X restore 365 568 pd limiter;
#X obj 802 147 switch~;
#N canvas 175 136 691 422 reverse 0;
#X obj 120 109 bng 15 250 50 0 empty empty Reverse_me 18 7 0 8 -262144
-1 -1;
#X obj 120 200 until;
#X obj 186 228 + 1;
#X obj 154 228 f;
#X obj 145 176 s \$1-length;
#X obj 323 335 table tempArray;
#X obj 120 152 t f f f;
#X obj 244 196 s tempArray;
#X msg 244 172 resize \$1;
#X obj 75 308 tabwrite tempArray;
#X obj 520 51 sel;
#X obj 596 41 - 1;
#X obj 596 17 r \$1-length;
#X obj 154 254 t f f f;
#X obj 67 278 s \$1-eof;
#X obj 520 18 r \$1-eof;
#X obj 520 123 until;
#X obj 520 98 f;
#X obj 520 156 f;
#X obj 552 156 - 1;
#X obj 571 103 r \$1-length;
#X obj 539 74 r \$1-length;
#X obj 520 208 tabread tempArray;
#X obj 584 255 f;
#X obj 603 231 r \$1-length;
#X obj 584 304 mod;
#X obj 603 279 r \$1-length;
#X obj 614 255 + 1;
#X obj 520 181 t f b;
#X obj 571 126 - 1;
#X text 53 335 Copies array to a temporary location.;
#X msg 337 124 0;
#X obj 337 148 s clr2;
#X obj 463 110 r clr2;
#X obj 173 200 r clr2;
#X obj 120 128 arraysize bande;
#X obj 179 281 tabread bande;
#X obj 520 335 tabwrite bande;
#X obj 120 42 inlet;
#X obj 471 368 sel 0;
#X text 515 377 Bang when done copying;
#X obj 471 390 outlet;
#X text 206 396 (Taken and adapted from Pd's help);
#X connect 0 0 31 0;
#X connect 0 0 35 0;
#X connect 1 0 3 0;
#X connect 2 0 3 1;
#X connect 3 0 2 0;
#X connect 3 0 13 0;
#X connect 6 0 1 0;
#X connect 6 1 4 0;
#X connect 6 2 8 0;
#X connect 8 0 7 0;
#X connect 10 0 17 0;
#X connect 11 0 10 1;
#X connect 12 0 11 0;
#X connect 13 0 14 0;
#X connect 13 1 36 0;
#X connect 13 2 9 1;
#X connect 15 0 10 0;
#X connect 16 0 18 0;
#X connect 17 0 16 0;
#X connect 18 0 19 0;
#X connect 18 0 28 0;
#X connect 19 0 18 1;
#X connect 20 0 29 0;
#X connect 21 0 17 1;
#X connect 22 0 37 0;
#X connect 23 0 25 0;
#X connect 23 0 27 0;
#X connect 24 0 23 1;
#X connect 25 0 37 1;
#X connect 26 0 25 1;
#X connect 27 0 23 1;
#X connect 28 0 22 0;
#X connect 28 0 39 0;
#X connect 28 1 23 0;
#X connect 29 0 18 1;
#X connect 31 0 32 0;
#X connect 33 0 18 1;
#X connect 34 0 3 1;
#X connect 35 0 6 0;
#X connect 36 0 9 0;
#X connect 38 0 0 0;
#X connect 39 0 41 0;
#X restore 893 560 pd reverse;
#X obj 893 497 bng 15 250 50 0 empty empty empty 17 7 0 10 -262144
-1 -1;
#X msg 847 354 \; bande const 0 \;;
#X msg 847 282 \; bande resize \$1 \;;
#X obj 893 518 t b b;
#X obj 366 548 *~;
#X obj 381 527 line~;
#X obj 381 507 pack 0 5;
#X msg 923 584 0;
#X obj 893 538 del 5;
#X msg 893 584 1;
#X obj 365 458 r~ main_out;
#X obj 893 612 s vol-output;
#X obj 381 486 r vol-output;
#X text 876 474 Reverse it !!!;
#X obj 751 188 s vol-output;
#X obj 74 126 inlet~;
#X obj 366 592 outlet~;
#X obj 458 166 r temlo;
#X connect 0 0 8 0;
#X connect 1 0 11 0;
#X connect 2 0 1 1;
#X connect 3 0 1 0;
#X connect 3 1 2 0;
#X connect 4 0 5 0;
#X connect 5 0 27 0;
#X connect 6 0 30 0;
#X connect 7 0 6 1;
#X connect 8 0 7 0;
#X connect 9 0 33 0;
#X connect 11 0 12 0;
#X connect 13 0 58 0;
#X connect 14 0 25 0;
#X connect 14 0 28 0;
#X connect 15 0 16 0;
#X connect 15 1 17 0;
#X connect 16 0 25 0;
#X connect 16 0 28 0;
#X connect 17 0 23 0;
#X connect 17 0 28 0;
#X connect 19 0 57 0;
#X connect 20 0 21 0;
#X connect 20 0 70 0;
#X connect 20 1 54 0;
#X connect 22 0 15 0;
#X connect 22 1 14 1;
#X connect 24 0 27 0;
#X connect 26 0 27 0;
#X connect 28 0 18 0;
#X connect 28 1 14 0;
#X connect 30 0 5 1;
#X connect 31 0 42 0;
#X connect 33 0 22 0;
#X connect 40 0 20 0;
#X connect 41 0 33 0;
#X connect 42 0 43 0;
#X connect 42 1 32 0;
#X connect 43 0 32 0;
#X connect 46 0 41 0;
#X connect 48 0 50 0;
#X connect 49 0 48 0;
#X connect 50 0 47 0;
#X connect 53 0 72 0;
#X connect 55 0 65 0;
#X connect 56 0 59 0;
#X connect 59 0 64 0;
#X connect 59 1 63 0;
#X connect 60 0 53 0;
#X connect 61 0 60 1;
#X connect 62 0 61 0;
#X connect 63 0 67 0;
#X connect 64 0 55 0;
#X connect 65 0 67 0;
#X connect 66 0 60 0;
#X connect 68 0 62 0;
#X connect 71 0 6 0;
#X connect 73 0 3 0;
